<?xml version="1.0" standalone="no"?>
<!DOCTYPE svg PUBLIC "-//W3C//DTD SVG 20010904//EN"
 "http://www.w3.org/TR/2001/REC-SVG-20010904/DTD/svg10.dtd">
<svg version="1.0" xmlns="http://www.w3.org/2000/svg"
 width="700.000000pt" height="700.000000pt" viewBox="0 0 700.000000 700.000000"
 preserveAspectRatio="xMidYMid meet">
<metadata>
Created by potrace 1.14, written by Peter Selinger 2001-2017
</metadata>
<g transform="translate(0.000000,700.000000) scale(0.100000,-0.100000)"
fill="#000000" stroke="none">
<path d="M139 6972 l-56 -3 1 -1602 1 -1602 443 -3 442 -2 0 995 c0 967 1 995
19 995 24 0 28 -5 88 -120 70 -132 218 -411 263 -495 68 -127 106 -199 165
-310 32 -60 86 -162 120 -225 34 -63 86 -160 115 -215 52 -99 86 -163 173
-325 25 -47 70 -132 101 -190 l55 -105 510 -3 511 -2 -2 1606 -3 1607 -402 -1
c-222 0 -420 -1 -441 -1 l-39 -1 -1 -977 c0 -538 -1 -986 -1 -995 -1 -12 -9
-18 -25 -18 -18 0 -28 9 -40 38 -8 20 -30 64 -49 97 -18 33 -62 114 -96 180
-93 175 -149 282 -186 350 -18 33 -56 105 -85 160 -29 55 -65 123 -80 150 -15
28 -58 109 -95 180 -37 72 -76 144 -85 160 -10 17 -46 84 -80 150 -35 66 -71
134 -80 150 -9 17 -52 98 -95 180 -43 83 -86 161 -95 174 l-17 24 -449 1
c-247 0 -474 0 -505 -2z"/>
<path d="M3644 6972 l-32 -3 13 -47 c7 -26 59 -202 115 -392 56 -190 119 -403
140 -475 43 -146 77 -262 209 -710 50 -170 99 -335 108 -365 9 -30 24 -82 34
-115 44 -148 120 -407 228 -775 40 -135 78 -263 85 -285 l13 -40 739 -3 739
-2 22 77 c30 104 75 254 316 1068 113 380 234 789 270 910 235 794 338 1138
343 1146 7 11 55 10 -466 10 -247 0 -465 0 -483 0 -33 -1 -33 -1 -54 -83 -11
-46 -107 -398 -212 -783 -106 -385 -194 -707 -196 -715 -4 -17 -243 -895 -251
-922 -4 -14 -37 -18 -50 -6 -2 2 -15 48 -29 103 -15 55 -31 114 -35 130 -5 17
-18 64 -30 105 -11 41 -22 82 -24 90 -2 8 -16 58 -31 110 -15 52 -33 118 -40
145 -20 73 -153 551 -170 610 -15 52 -199 723 -242 880 -13 50 -33 122 -44
160 -11 39 -22 77 -24 85 -2 8 -9 32 -17 54 l-13 39 -450 1 c-247 0 -464 0
-481 -2z"/>
<path d="M83 1648 l0 -1607 746 1 c822 1 853 3 1086 49 275 56 572 191 770
352 88 72 234 224 270 283 10 16 27 38 36 49 31 36 126 228 159 320 32 92 63
219 77 316 10 66 10 407 1 469 -61 418 -243 731 -583 1003 -84 68 -266 170
-385 217 -200 79 -370 119 -625 146 -33 4 -396 7 -806 8 l-746 1 0 -1607z
m1567 864 c335 -90 542 -302 617 -632 21 -91 25 -326 7 -424 -70 -384 -329
-632 -724 -692 -25 -4 -159 -8 -297 -9 l-253 -2 0 895 0 894 288 -5 c246 -4
298 -8 362 -25z"/>
<path d="M3804 3245 c-2 -5 -3 -728 -2 -1605 l3 -1595 750 0 c679 0 835 3 945
21 656 104 1145 460 1354 986 29 73 74 235 82 295 3 21 9 67 13 103 13 101 6
393 -13 495 -89 495 -385 879 -851 1105 -173 84 -394 152 -570 176 -27 3 -59
8 -70 10 -101 19 -1634 28 -1641 9z m1567 -733 c418 -112 647 -435 635 -892
-2 -69 -7 -138 -10 -155 -41 -200 -100 -322 -214 -446 -127 -137 -263 -205
-512 -255 -19 -4 -151 -8 -292 -9 l-258 -2 -1 36 c0 45 0 1709 1 1735 0 17 12
18 288 13 247 -4 297 -8 363 -25z"/>
</g>
</svg>
